<svg width="40" height="37" viewBox="0 0 40 37" fill="black" xmlns="http://www.w3.org/2000/svg">
  <g clip-path="url(#clip0)">
    <rect x="3.69232" y="25.2308" width="32.6154" height="8" fill="white" />
    <rect x="3.69232" y="0" width="32.6154" height="25" fill="black" />
    <path d="M35.9458 0H4.05417C1.81575 0 0 1.79983 0 4.01864V22.8372H40V4.01864C40 1.79983 38.1842 0 35.9458 0ZM19.5505 16.464V19.3792H16.6096H13.7163H10.7754H7.93571H5.00074V16.464V6.13713C5.00074 5.48801 5.53654 4.95691 6.1914 4.95691H7.94166V16.464H10.7814V4.95691H13.7223V16.464H16.6096V4.95691H19.5505V16.464ZM35.0052 7.87204V10.74V13.6551V16.464V19.3792H32.0643H21.8544V16.464H32.0643V13.6492H21.8544V10.7341H32.0643V7.86614H21.8544V4.95691H32.0643H33.8146C34.4694 4.95691 35.0052 5.48801 35.0052 6.13713V7.87204Z" fill="white" />
    <path d="M13.2877 29.6411H14.7165L14.0021 27.8826L13.2877 29.6411Z" fill="#FF4500" />
    <path d="M0 32.9044C0 35.1232 1.81575 36.9231 4.05417 36.9231H35.9399C38.1783 36.9231 39.994 35.1232 39.994 32.9044V22.8372H0V32.9044ZM30.2962 28.0301C30.2962 27.0447 31.1058 26.248 32.7549 26.248C33.4752 26.248 34.2253 26.4132 34.7671 26.726L34.2849 27.8826C33.755 27.5994 33.2311 27.4577 32.743 27.4577C32.0822 27.4577 31.844 27.6761 31.844 27.9534C31.844 28.7973 34.9933 28.1659 34.9933 30.1958C34.9933 31.1577 34.1837 31.9721 32.5346 31.9721C31.6238 31.9721 30.7189 31.7301 30.195 31.3643L30.7129 30.2135C31.207 30.5381 31.9036 30.7564 32.5465 30.7564C33.1954 30.7564 33.4514 30.5735 33.4514 30.308C33.4574 29.4405 30.2962 30.0778 30.2962 28.0301ZM25.2597 26.3542H29.6175V27.5581H26.8195V28.4845H29.2841V29.647H26.8195V30.6561H29.7247V31.8599H25.2657V26.3542H25.2597ZM17.6931 26.3542H18.985L20.9376 29.529L22.8427 26.3542H24.1345L24.1524 31.8599H22.7058L22.6879 28.9448L21.2591 31.317H20.5626L19.1398 29.0215V31.8599H17.6872V26.3542H17.6931ZM13.2401 26.3542H14.7879L17.2466 31.8599H15.6154L15.1808 30.7918H12.8352L12.4007 31.8599H10.7992L13.2401 26.3542ZM8.15598 26.248C9.1978 26.248 10.0372 26.6021 10.5849 27.2571L9.58476 28.1482C9.20375 27.7292 8.76916 27.5344 8.23337 27.5344C7.28085 27.5344 6.64385 28.1541 6.64385 29.11C6.64385 30.0365 7.28085 30.6797 8.21551 30.6797C8.50722 30.6797 8.78702 30.6266 9.06683 30.4968V28.9861H10.4539V31.2639C9.81098 31.7183 8.9299 31.9662 8.12026 31.9662C6.35214 31.9662 5.06028 30.78 5.06028 29.1041C5.06028 27.4282 6.35809 26.248 8.15598 26.248Z" fill="#FF4500" />
  </g>
  <defs>
    <clipPath id="clip0">
      <rect width="40" height="36.9231" fill="white" />
    </clipPath>
  </defs>
</svg>