<svg width="56" height="56" viewBox="0 0 56 56" fill="none" xmlns="http://www.w3.org/2000/svg">
  <path d="M28.3267 35.1634V30.59C28.3267 24.71 33.0867 19.9267 38.99 19.9267H43.5633" stroke="white" stroke-width="3" stroke-linecap="round" stroke-linejoin="round" />
  <path d="M13.1133 19.9501H17.6867C23.5667 19.9501 28.35 24.7101 28.35 30.6134V32.1301V40.2501" stroke="white" stroke-width="3" stroke-linecap="round" stroke-linejoin="round" />
  <path d="M16.6599 15.75L12.46 19.95L16.6599 24.15" stroke="white" stroke-width="3" stroke-linecap="round" stroke-linejoin="round" />
  <path d="M39.3398 15.75L43.5398 19.95L39.3398 24.15" stroke="white" stroke-width="3" stroke-linecap="round" stroke-linejoin="round" />
  <path d="M20.9998 51.3334H34.9998C46.6665 51.3334 51.3332 46.6667 51.3332 35V21C51.3332 9.33335 46.6665 4.66669 34.9998 4.66669H20.9998C9.33317 4.66669 4.6665 9.33335 4.6665 21V35C4.6665 46.6667 9.33317 51.3334 20.9998 51.3334Z" stroke="white" stroke-width="3" stroke-linecap="round" stroke-linejoin="round" />
</svg>