<svg width="74" height="74" viewBox="0 0 74 74" fill="none" xmlns="http://www.w3.org/2000/svg">
  <path d="M13.1235 34.05V49.1844C13.1235 54.7265 13.1235 54.7265 18.3612 58.2588L32.7646 66.5721C34.9267 67.8206 38.459 67.8206 40.6211 66.5721L55.0246 58.2588C60.2622 54.7265 60.2622 54.7265 60.2622 49.1844V34.05C60.2622 28.5079 60.2622 28.5079 55.0246 24.9755L40.6211 16.6623C38.459 15.4138 34.9267 15.4138 32.7646 16.6623L18.3612 24.9755C13.1235 28.5079 13.1235 28.5079 13.1235 34.05Z" stroke="white" stroke-width="4" stroke-linecap="round" stroke-linejoin="round" />
  <path d="M53.4418 23.727V15.7183C53.4418 9.62808 50.3967 6.58295 44.3064 6.58295H29.0807C22.9904 6.58295 19.9453 9.62808 19.9453 15.7183V23.5139" stroke="white" stroke-width="4" stroke-linecap="round" stroke-linejoin="round" />
  <path d="M38.6114 33.9587L40.3471 36.6689C40.6211 37.0952 41.2302 37.5215 41.6869 37.6434L44.793 38.4351C46.7114 38.9223 47.2291 40.5667 45.9806 42.0892L43.9403 44.5558C43.6358 44.9517 43.3922 45.6521 43.4227 46.1393L43.6054 49.3367C43.7272 51.316 42.3264 52.3209 40.4993 51.5901L37.5151 50.4025C37.0583 50.2198 36.2971 50.2198 35.8403 50.4025L32.8561 51.5901C31.029 52.3209 29.6282 51.2856 29.75 49.3367L29.9327 46.1393C29.9632 45.6521 29.7196 44.9212 29.4151 44.5558L27.3748 42.0892C26.1263 40.5667 26.644 38.9223 28.5624 38.4351L31.6685 37.6434C32.1557 37.5215 32.7647 37.0648 33.0083 36.6689L34.744 33.9587C35.8403 32.3144 37.5456 32.3144 38.6114 33.9587Z" stroke="white" stroke-width="4" stroke-linecap="round" stroke-linejoin="round" />
</svg>