<svg width="56" height="56" viewBox="0 0 56 56" fill="none" xmlns="http://www.w3.org/2000/svg">
  <path d="M18.6665 26.6C18.6665 28.3967 20.0665 29.8667 21.7698 29.8667H25.2698C26.7632 29.8667 27.9765 28.5833 27.9765 27.02C27.9765 25.3167 27.2298 24.71 26.1332 24.3133L20.5332 22.3533C19.4132 21.9567 18.6665 21.35 18.6665 19.6467C18.6665 18.0833 19.8798 16.8 21.3732 16.8H24.8732C26.5998 16.8233 27.9998 18.27 27.9998 20.0667" stroke="white" stroke-width="3" stroke-linecap="round" stroke-linejoin="round" />
  <path d="M23.3335 29.9838V31.7104" stroke="white" stroke-width="3" stroke-linecap="round" stroke-linejoin="round" />
  <path d="M23.3335 14.9566V16.7766" stroke="white" stroke-width="3" stroke-linecap="round" stroke-linejoin="round" />
  <path d="M23.3098 41.9534C33.6063 41.9534 41.9532 33.6064 41.9532 23.31C41.9532 13.0136 33.6063 4.66669 23.3098 4.66669C13.0134 4.66669 4.6665 13.0136 4.6665 23.31C4.6665 33.6064 13.0134 41.9534 23.3098 41.9534Z" stroke="white" stroke-width="3" stroke-linecap="round" stroke-linejoin="round" />
  <path d="M30.2866 46.3866C32.3866 49.35 35.8166 51.2866 39.7366 51.2866C46.1066 51.2866 51.2866 46.1067 51.2866 39.7366C51.2866 35.8633 49.3733 32.4333 46.4566 30.3333" stroke="white" stroke-width="3" stroke-linecap="round" stroke-linejoin="round" />
</svg>