<svg width="56" height="56" viewBox="0 0 56 56" fill="none" xmlns="http://www.w3.org/2000/svg">
  <path d="M16.3332 18.6666H9.33317C6.7665 18.6666 4.6665 16.5666 4.6665 14V9.33329C4.6665 6.76663 6.7665 4.66663 9.33317 4.66663H16.3332C18.8998 4.66663 20.9998 6.76663 20.9998 9.33329V14C20.9998 16.5666 18.8998 18.6666 16.3332 18.6666Z" stroke="white" stroke-width="3" stroke-linecap="round" stroke-linejoin="round" />
  <path d="M48.5335 16.3333H40.1335C38.5935 16.3333 37.3335 15.0733 37.3335 13.5333V9.80003C37.3335 8.26003 38.5935 7 40.1335 7H48.5335C50.0735 7 51.3335 8.26003 51.3335 9.80003V13.5333C51.3335 15.0733 50.0735 16.3333 48.5335 16.3333Z" stroke="white" stroke-width="3" stroke-linecap="round" stroke-linejoin="round" />
  <path d="M48.5335 33.8333H40.1335C38.5935 33.8333 37.3335 32.5733 37.3335 31.0333V27.3C37.3335 25.76 38.5935 24.5 40.1335 24.5H48.5335C50.0735 24.5 51.3335 25.76 51.3335 27.3V31.0333C51.3335 32.5733 50.0735 33.8333 48.5335 33.8333Z" stroke="white" stroke-width="3" stroke-linecap="round" stroke-linejoin="round" />
  <path d="M21 11.6666H37.3333" stroke="white" stroke-width="3" stroke-miterlimit="10" stroke-linecap="round" stroke-linejoin="round" />
  <path d="M29.1665 11.6666V42C29.1665 44.5666 31.2665 46.6666 33.8332 46.6666H37.3332" stroke="white" stroke-width="3" stroke-miterlimit="10" stroke-linecap="round" stroke-linejoin="round" />
  <path d="M29.1665 29.1666H37.3332" stroke="white" stroke-width="3" stroke-miterlimit="10" stroke-linecap="round" stroke-linejoin="round" />
  <path d="M48.5335 51.3333H40.1335C38.5935 51.3333 37.3335 50.0733 37.3335 48.5333V44.8C37.3335 43.26 38.5935 42 40.1335 42H48.5335C50.0735 42 51.3335 43.26 51.3335 44.8V48.5333C51.3335 50.0733 50.0735 51.3333 48.5335 51.3333Z" stroke="white" stroke-width="3" stroke-linecap="round" stroke-linejoin="round" />
</svg>