<svg width="24" height="24" viewBox="0 0 24 24" fill="none" xmlns="http://www.w3.org/2000/svg">
  <path
    d="M14.9919 10.9054C14.0757 10.9135 13.3216 11.6838 13.3216 12.6486C13.3216 13.5973 14.0757 14.3757 14.9919 14.3757C15.9162 14.3757 16.6622 13.5973 16.6622 12.6405C16.6703 11.6838 15.9243 10.9054 14.9919 10.9054Z"
    fill="white" />
  <path
    d="M9.00812 10.9054C8.0838 10.9135 7.32974 11.6838 7.32974 12.6486C7.32974 13.5973 8.0838 14.3757 9.00001 14.3757C9.91623 14.3757 10.6703 13.5973 10.6703 12.6405C10.6784 11.6838 9.93244 10.9054 9.00812 10.9054Z"
    fill="white" />
  <path
    d="M12 0C5.37568 0 0 5.37568 0 12C0 18.6243 5.37568 24 12 24C18.6243 24 24 18.6243 24 12C24 5.37568 18.6243 0 12 0ZM14.7324 5.18108H14.7568L14.7162 5.1973L14.7324 5.18108ZM16.5162 18.1865C16.5162 18.1865 15.9081 17.4973 15.4703 16.8892C17.5865 16.2811 18.373 15.0649 18.373 15.0649C14.2541 17.6595 10.6459 17.2541 6.33243 15.5027C6.29189 15.5027 6.27568 15.4865 6.25135 15.4622V15.4541C6.22703 15.4378 6.21081 15.4135 6.17027 15.4135H6.08919C5.82162 15.2432 5.65135 15.1541 5.65135 15.1541C5.65135 15.1541 6.43784 16.3703 8.47297 16.9784C7.93784 17.5865 7.41081 18.2757 7.41081 18.2757C3.79459 18.1865 2.48108 15.9324 2.48108 15.9324C2.48108 10.9054 4.85676 6.82703 4.85676 6.82703C7.23243 5.1 9.43784 5.18108 9.43784 5.18108L9.61622 5.35946C6.7054 6.05676 5.38378 7.35405 5.38378 7.35405C5.52162 7.32162 11.3919 3.93243 18.5108 7.44324C18.5108 7.44324 17.1892 6.22703 14.4568 5.44865L14.7 5.21351C15.0811 5.21351 17.0757 5.28649 19.2162 6.85135C19.2162 6.85135 21.6081 10.9378 21.6081 15.9568C21.5351 15.8514 20.1324 18.1054 16.5162 18.1865Z"
    fill="white" />
</svg>