<svg width="19" height="19" viewBox="0 0 19 19" fill="none" xmlns="http://www.w3.org/2000/svg">
  <path fillRule="evenodd" clipRule="evenodd"
    d="M1.57036 1.57036C2.14256 0.998153 2.93994 0.777771 3.81944 0.777771H5.34722C6.22671 0.777771 7.02409 0.998153 7.5963 1.57036C8.1685 2.14256 8.38888 2.93994 8.38888 3.81944V5.34721C8.38888 6.22671 8.1685 7.02409 7.5963 7.59629C7.02409 8.1685 6.22671 8.38888 5.34722 8.38888H3.81944C2.93994 8.38888 2.14256 8.1685 1.57036 7.59629C0.998153 7.02409 0.777771 6.22671 0.777771 5.34721V3.81944C0.777771 2.93994 0.998153 2.14256 1.57036 1.57036ZM2.63102 2.63102C2.43933 2.8227 2.27777 3.17116 2.27777 3.81944V5.34721C2.27777 5.99549 2.43933 6.34395 2.63102 6.53563C2.8227 6.72732 3.17116 6.88888 3.81944 6.88888H5.34722C5.9955 6.88888 6.34395 6.72732 6.53563 6.53563C6.72732 6.34395 6.88888 5.99549 6.88888 5.34721V3.81944C6.88888 3.17116 6.72732 2.8227 6.53563 2.63102C6.34395 2.43933 5.9955 2.27777 5.34722 2.27777H3.81944C3.17116 2.27777 2.8227 2.43933 2.63102 2.63102Z"
    fill="white" />
  <path
    d="M13.5768 1.82783C13.6538 1.6945 13.8463 1.6945 13.9232 1.82783L16.7517 6.7269C16.8287 6.86023 16.7325 7.0269 16.5785 7.0269H10.9216C10.7676 7.0269 10.6714 6.86023 10.7483 6.7269L13.5768 1.82783Z"
    stroke="white" strokeWidth="1.5" />
  <path fillRule="evenodd" clipRule="evenodd"
    d="M1.13344 17.1954C0.853074 16.915 0.883263 16.4303 1.20087 16.1127L6.95161 10.3619C7.26922 10.0443 7.75397 10.0141 8.03433 10.2945C8.3147 10.5749 8.28451 11.0596 7.9669 11.3772L2.21616 17.128C1.89856 17.4456 1.4138 17.4758 1.13344 17.1954Z"
    fill="white" />
  <path fillRule="evenodd" clipRule="evenodd"
    d="M1.13344 10.2945C1.4138 10.0141 1.89855 10.0443 2.21616 10.3619L7.9669 16.1127C8.2845 16.4303 8.31469 16.915 8.03433 17.1954C7.75396 17.4758 7.26921 17.4456 6.95161 17.128L1.20086 11.3772C0.88326 11.0596 0.853071 10.5749 1.13344 10.2945Z"
    fill="white" />
  <path fillRule="evenodd" clipRule="evenodd"
    d="M13.745 11.4399C12.472 11.4399 11.44 12.4719 11.44 13.7449C11.44 15.018 12.472 16.0499 13.745 16.0499C15.018 16.0499 16.05 15.018 16.05 13.7449C16.05 12.4719 15.018 11.4399 13.745 11.4399ZM9.94 13.7449C9.94 11.6435 11.6436 9.93994 13.745 9.93994C15.8464 9.93994 17.55 11.6435 17.55 13.7449C17.55 15.8464 15.8464 17.5499 13.745 17.5499C11.6436 17.5499 9.94 15.8464 9.94 13.7449Z"
    fill="white" />
</svg>