<svg width="15" height="14" viewBox="0 0 15 14" fill="none" xmlns="http://www.w3.org/2000/svg">
  <g clip-path="url(#clip0)">
    <path d="M7.89546 11.5696C5.34969 11.5696 3.25781 9.52789 3.25781 7.00011C3.25781 4.49178 5.32995 2.43066 7.89546 2.43066C10.4412 2.43066 12.5331 4.47233 12.5331 7.00011C12.5331 9.50844 10.4412 11.5696 7.89546 11.5696ZM7.89546 3.34455C5.84305 3.34455 4.18534 4.97789 4.18534 7.00011C4.18534 9.02233 5.84305 10.6557 7.89546 10.6557C9.94786 10.6557 11.6056 9.02233 11.6056 7.00011C11.6056 4.97789 9.94786 3.34455 7.89546 3.34455Z" fill="#777777" />
    <path d="M7.89555 5.38611C7.639 5.38611 7.44165 5.19167 7.44165 4.93889V0.447222C7.44165 0.194444 7.639 0 7.89555 0C8.1521 0 8.34944 0.194444 8.34944 0.447222V4.93889C8.34944 5.19167 8.1521 5.38611 7.89555 5.38611Z" fill="#777777" />
    <path d="M7.89555 13.9999C7.639 13.9999 7.44165 13.8054 7.44165 13.5527V9.06099C7.44165 8.80821 7.639 8.61377 7.89555 8.61377C8.1521 8.61377 8.34944 8.80821 8.34944 9.06099V13.5527C8.34944 13.8054 8.1521 13.9999 7.89555 13.9999Z" fill="#777777" />
    <path d="M14.546 7.44718H9.98734C9.73079 7.44718 9.53345 7.25273 9.53345 6.99996C9.53345 6.74718 9.73079 6.55273 9.98734 6.55273H14.546C14.8026 6.55273 14.9999 6.74718 14.9999 6.99996C14.9999 7.25273 14.8026 7.44718 14.546 7.44718Z" fill="#777777" />
    <path d="M5.80362 7.44718H1.24491C0.988362 7.44718 0.791016 7.25273 0.791016 6.99996C0.791016 6.74718 0.988362 6.55273 1.24491 6.55273H5.80362C6.06017 6.55273 6.25752 6.74718 6.25752 6.99996C6.25752 7.25273 6.06017 7.44718 5.80362 7.44718Z" fill="#777777" />
  </g>
  <defs>
    <clipPath id="clip0">
      <rect width="14.209" height="14" fill="white" transform="translate(0.791016)" />
    </clipPath>
  </defs>
</svg>