<svg width="24" height="24" viewBox="0 0 24 24" fill="none" xmlns="http://www.w3.org/2000/svg">
  <path d="M12 0C5.375 0 0 5.375 0 12C0 18.625 5.375 24 12 24C18.625 24 24 18.625 24 12C24 5.375 18.625 0 12 0ZM7.78125 17.0312C5 17.0312 2.75 14.7812 2.75 12C2.75 9.21875 5 6.96875 7.78125 6.96875C10.5625 6.96875 12.8125 9.21875 12.8125 12C12.8125 14.7812 10.5625 17.0312 7.78125 17.0312ZM15.8125 16.7188C14.2625 16.7188 13 14.6062 13 12C13 9.39375 14.2563 7.28125 15.8125 7.28125C17.3687 7.28125 18.625 9.39375 18.625 12C18.625 14.6062 17.3625 16.7188 15.8125 16.7188ZM19.8438 16.0875C19.2437 16.0875 18.75 14.2563 18.75 12C18.75 9.74375 19.2375 7.9125 19.8438 7.9125C20.45 7.9125 20.9375 9.74375 20.9375 12C20.9375 14.2563 20.45 16.0875 19.8438 16.0875Z" fill="currentColor" />
</svg>