<svg width="56" height="56" viewBox="0 0 56 56" fill="none" xmlns="http://www.w3.org/2000/svg">
  <path d="M51.3332 17.3365V31.3365C51.3332 34.8365 50.1665 37.7532 48.1132 39.8065C46.0832 41.8365 43.1665 43.0032 39.6665 43.0032V47.9732C39.6665 49.8399 37.5899 50.9599 36.0499 49.9333L25.6665 43.0032H20.7198C20.9065 42.3032 20.9998 41.5799 20.9998 40.8332C20.9998 38.4532 20.0898 36.2599 18.5965 34.6033C16.9165 32.6899 14.4198 31.4999 11.6665 31.4999C9.05317 31.4999 6.67318 32.5733 4.96985 34.3233C4.75985 33.3899 4.6665 32.3865 4.6665 31.3365V17.3365C4.6665 10.3365 9.33317 5.66986 16.3332 5.66986H39.6665C46.6665 5.66986 51.3332 10.3365 51.3332 17.3365Z" stroke="white" stroke-width="3" stroke-miterlimit="10" stroke-linecap="round" stroke-linejoin="round" />
  <path d="M21.0002 40.8333C21.0002 43.6333 19.7635 46.13 17.8269 47.8333C16.1702 49.28 14.0235 50.1667 11.6668 50.1667C6.51016 50.1667 2.3335 45.99 2.3335 40.8333C2.3335 37.8933 3.68683 35.2567 5.8335 33.5533C7.4435 32.27 9.4735 31.5 11.6668 31.5C16.8235 31.5 21.0002 35.6767 21.0002 40.8333Z" stroke="white" stroke-width="3" stroke-miterlimit="10" stroke-linecap="round" stroke-linejoin="round" />
  <path d="M12.2502 37.9166V41.4166L9.3335 43.1666" stroke="white" stroke-width="3" stroke-miterlimit="10" stroke-linecap="round" stroke-linejoin="round" />
  <path d="M19.8335 24.5H36.1668" stroke="white" stroke-width="3" stroke-miterlimit="10" stroke-linecap="round" stroke-linejoin="round" />
</svg>