<svg width="56" height="56" viewBox="0 0 56 56" fill="none" xmlns="http://www.w3.org/2000/svg">
  <path d="M42 16.7066C41.86 16.6833 41.6967 16.6833 41.5567 16.7066C38.3367 16.59 35.77 13.9533 35.77 10.6866C35.77 7.34996 38.4533 4.66663 41.79 4.66663C45.1267 4.66663 47.81 7.3733 47.81 10.6866C47.7867 13.9533 45.22 16.59 42 16.7066Z" stroke="white" stroke-width="3" stroke-linecap="round" stroke-linejoin="round" />
  <path d="M39.5969 33.6932C42.7935 34.2298 46.3169 33.6698 48.7902 32.0132C52.0802 29.8198 52.0802 26.2265 48.7902 24.0332C46.2935 22.3765 42.7235 21.8165 39.5269 22.3765" stroke="white" stroke-width="3" stroke-linecap="round" stroke-linejoin="round" />
  <path d="M13.9296 16.7066C14.0696 16.6833 14.233 16.6833 14.373 16.7066C17.593 16.59 20.1596 13.9533 20.1596 10.6866C20.1596 7.34996 17.4763 4.66663 14.1396 4.66663C10.803 4.66663 8.11963 7.3733 8.11963 10.6866C8.14296 13.9533 10.7096 16.59 13.9296 16.7066Z" stroke="white" stroke-width="3" stroke-linecap="round" stroke-linejoin="round" />
  <path d="M16.3332 33.6932C13.1365 34.2298 9.6132 33.6698 7.13986 32.0132C3.84986 29.8198 3.84986 26.2265 7.13986 24.0332C9.63653 22.3765 13.2065 21.8165 16.4032 22.3765" stroke="white" stroke-width="3" stroke-linecap="round" stroke-linejoin="round" />
  <path d="M28 34.1367C27.86 34.1134 27.6967 34.1134 27.5567 34.1367C24.3367 34.02 21.77 31.3833 21.77 28.1167C21.77 24.78 24.4533 22.0967 27.79 22.0967C31.1267 22.0967 33.81 24.8033 33.81 28.1167C33.7867 31.3833 31.22 34.0434 28 34.1367Z" stroke="white" stroke-width="3" stroke-linecap="round" stroke-linejoin="round" />
  <path d="M21.2102 41.4866C17.9202 43.6799 17.9202 47.2733 21.2102 49.4666C24.9435 51.9633 31.0568 51.9633 34.7902 49.4666C38.0802 47.2733 38.0802 43.6799 34.7902 41.4866C31.0802 39.0133 24.9435 39.0133 21.2102 41.4866Z" stroke="white" stroke-width="3" stroke-linecap="round" stroke-linejoin="round" />
</svg>