<svg width="56" height="56" viewBox="0 0 56 56" fill="none" xmlns="http://www.w3.org/2000/svg">
  <path d="M42.6229 54.3667V55.85H13.3917V54.3667C13.3917 50.43 16.2407 47.1368 19.9771 46.4496L20.0789 46.4309L20.0976 46.3291C20.6843 43.1233 23.204 40.5743 26.397 39.9157L26.5167 39.891V39.7687V16.2458V16.1398L26.4167 16.1044C25.0594 15.6237 23.9846 14.5489 23.5039 13.1916L23.4685 13.0917H23.3625H12.3083H12.0833L12.1699 13.2994L19.5375 30.9758V31.2667C19.5375 35.7043 15.9154 39.3125 11.4771 39.3125H8.19583C3.75784 39.3125 0.15 35.7047 0.15 31.2667V30.9758L7.51762 13.2994L7.6042 13.0917H7.37917H3.43125V10.1104H23.3479H23.4539L23.4893 10.0105C23.97 8.65315 25.0448 7.57837 26.4022 7.09764L26.5021 7.06225V6.95625V0.15H29.4833V6.94167V7.04767L29.5833 7.08306C30.9406 7.56379 32.0154 8.63856 32.4961 9.99591L32.5315 10.0958H32.6375H52.5688V13.0917H48.6208H48.396L48.4823 13.2993L55.8354 30.9758V31.2667C55.8354 35.7047 52.2276 39.3125 47.7896 39.3125H44.5083C40.0704 39.3125 36.4625 35.7047 36.4625 31.2667V30.9759L43.8447 13.2848L43.9314 13.0771H43.7063H32.6521H32.5461L32.5107 13.177C32.03 14.5344 30.9552 15.6091 29.5978 16.0899L29.4979 16.1252V16.2313V39.7687V39.8915L29.6182 39.9158C32.81 40.5599 35.3158 43.1081 35.9171 46.3296L35.936 46.4306L36.037 46.4495C39.7885 47.1511 42.6229 50.4301 42.6229 54.3667ZM9.9822 15.8089L9.84375 15.4769L9.7053 15.8089L3.95947 29.5902L3.87286 29.7979H4.09792H15.5896H15.8146L15.728 29.5902L9.9822 15.8089ZM3.55833 32.7646H3.34668L3.41681 32.9643C4.10812 34.933 5.98656 36.3458 8.19583 36.3458H11.4771C13.6864 36.3458 15.5648 34.933 16.2561 32.9643L16.3262 32.7646H16.1146H3.55833ZM46.2947 15.8089L46.1563 15.4769L46.0178 15.8089L40.272 29.5902L40.1854 29.7979H40.4104H51.9021H52.1271L52.0405 29.5902L46.2947 15.8089ZM39.8854 32.7646H39.6738L39.7439 32.9643C40.4352 34.933 42.3136 36.3458 44.5229 36.3458H47.8042C49.9993 36.3458 51.877 34.9327 52.5829 32.9652L52.6549 32.7646H52.4417H39.8854ZM39.2 52.8688H39.4117L39.3415 52.6691C38.6502 50.7003 36.7718 49.2875 34.5625 49.2875H21.4375C19.2431 49.2875 17.3499 50.7001 16.6585 52.6691L16.5884 52.8688H16.8H39.2ZM32.6375 46.3063H32.8492L32.779 46.1066C32.0877 44.1378 30.2093 42.725 28 42.725C25.8056 42.725 23.9124 44.1376 23.221 46.1066L23.1509 46.3063H23.3625H32.6375ZM26.2167 11.6083C26.2167 12.5953 27.013 13.3917 28 13.3917C28.987 13.3917 29.7833 12.5953 29.7833 11.6083C29.7833 10.6213 28.987 9.825 28 9.825C27.013 9.825 26.2167 10.6213 26.2167 11.6083Z" fill="white" stroke="#726A67" stroke-width="0.3" />
</svg>