<svg width="20" height="20" viewBox="0 0 20 20" fill="none" xmlns="http://www.w3.org/2000/svg">
  <path fill-rule="evenodd" clip-rule="evenodd" d="M0.833374 2.29958C0.833374 1.95003 1.12229 1.66667 1.47868 1.66667H2.1106C3.30389 1.66667 4.31044 2.53817 4.45845 3.6995L4.62957 5.0422H16.8274C17.7479 5.0422 18.453 5.84518 18.3164 6.73806L17.3938 12.7704C17.2201 13.9064 16.2251 14.7468 15.0539 14.7468H6.83247C5.66124 14.7468 4.66626 13.9064 4.49252 12.7704L3.42174 5.76899L3.41958 5.75361L3.1778 3.8565C3.11052 3.32863 2.653 2.93249 2.1106 2.93249H1.47868C1.12229 2.93249 0.833374 2.64913 0.833374 2.29958ZM4.80923 6.30802L5.76886 12.5826C5.84783 13.099 6.30009 13.481 6.83247 13.481H15.0539C15.5863 13.481 16.0385 13.099 16.1175 12.5826L17.0401 6.55028C17.0596 6.42273 16.9589 6.30802 16.8274 6.30802H4.80923Z" fill="white" />
  <path d="M16.1056 17.4895C16.1056 17.9555 15.7204 18.3333 15.2452 18.3333C14.77 18.3333 14.3848 17.9555 14.3848 17.4895C14.3848 17.0234 14.77 16.6456 15.2452 16.6456C15.7204 16.6456 16.1056 17.0234 16.1056 17.4895Z" fill="white" />
  <path d="M7.50154 17.4895C7.50154 17.9555 7.11632 18.3333 6.64113 18.3333C6.16594 18.3333 5.78073 17.9555 5.78073 17.4895C5.78073 17.0234 6.16594 16.6456 6.64113 16.6456C7.11632 16.6456 7.50154 17.0234 7.50154 17.4895Z" fill="white" />
</svg>