<svg width="24" height="24" viewBox="0 0 24 24" fill="none" xmlns="http://www.w3.org/2000/svg">
  <path d="M12 0C5.375 0 0 5.375 0 12C0 18.625 5.375 24 12 24C18.625 24 24 18.625 24 12C24 5.375 18.625 0 12 0ZM17.8937 8.21875L15.925 17.5C15.7812 18.1562 15.3875 18.3188 14.8438 18.0063L11.8438 15.7937L10.3938 17.1875C10.2312 17.35 10.1 17.4813 9.7875 17.4813L10 14.4375L15.5625 9.4125C15.8062 9.2 15.5063 9.08125 15.1875 9.29375L8.31875 13.6187L5.35625 12.6938C4.7125 12.4875 4.7 12.05 5.49375 11.7437L17.0625 7.28125C17.6 7.0875 18.0687 7.4125 17.8937 8.21875Z" fill="currentColor" />
</svg>