<svg width="24" height="24" viewBox="0 0 24 24" fill="none" xmlns="http://www.w3.org/2000/svg">
  <path
    d="M12 0C5.375 0 0 5.375 0 12C0 18.625 5.375 24 12 24C18.625 24 24 18.625 24 12C24 5.375 18.625 0 12 0ZM18.0562 9.6625C18.0625 9.7875 18.0688 9.91875 18.0688 10.05C18.0688 14.0312 15.0375 18.6187 9.5 18.6187C7.79375 18.6187 6.2125 18.125 4.88125 17.2687C5.11875 17.3 5.35625 17.3125 5.6 17.3125C7.00625 17.3125 8.30625 16.8312 9.33125 16.0312C8.0125 16 6.90625 15.125 6.51875 13.9312C6.7 13.9688 6.89375 13.9812 7.0875 13.9812C7.3625 13.9812 7.63125 13.95 7.875 13.8813C6.50625 13.6 5.4625 12.3875 5.4625 10.925C5.4625 10.9125 5.4625 10.9 5.4625 10.8938C5.8625 11.1125 6.3375 11.2562 6.825 11.2625C6.025 10.725 5.4875 9.8 5.4875 8.7625C5.4875 8.20625 5.6375 7.69375 5.9 7.2375C7.3875 9.0625 9.6 10.2625 12.1062 10.3875C12.0562 10.1687 12.0375 9.9375 12.0375 9.7C12.0375 8.04375 13.3812 6.6875 15.0437 6.6875C15.9 6.6875 16.6875 7.05 17.2437 7.6375C17.9312 7.5 18.5688 7.25625 19.15 6.90625C18.925 7.6125 18.45 8.2 17.825 8.56875C18.4313 8.49375 19.0125 8.33125 19.5625 8.09375C19.15 8.70625 18.65 9.2375 18.0562 9.6625Z"
    fill="white" />
</svg>