<svg width="74" height="74" viewBox="0 0 74 74" fill="none" xmlns="http://www.w3.org/2000/svg">
  <path d="M54.884 57.9238H52.5697C50.1336 57.9238 47.8193 58.8678 46.114 60.5731L40.9068 65.7194C38.5316 68.0641 34.6644 68.0641 32.2892 65.7194L27.0819 60.5731C25.3767 58.8678 23.0319 57.9238 20.6263 57.9238H18.3424C13.2875 57.9238 9.20703 53.8739 9.20703 48.8799V15.6574C9.20703 10.6633 13.2875 6.6134 18.3424 6.6134H54.884C59.939 6.6134 64.0194 10.6633 64.0194 15.6574V48.8799C64.0194 53.8434 59.939 57.9238 54.884 57.9238Z" stroke="white" stroke-width="4" stroke-miterlimit="10" stroke-linecap="round" stroke-linejoin="round" />
  <path d="M36.6128 30.944C40.5313 30.944 43.708 27.7674 43.708 23.8488C43.708 19.9303 40.5313 16.7538 36.6128 16.7538C32.6942 16.7538 29.5176 19.9303 29.5176 23.8488C29.5176 27.7674 32.6942 30.944 36.6128 30.944Z" stroke="white" stroke-width="4" stroke-linecap="round" stroke-linejoin="round" />
  <path d="M48.7937 48.1794C48.7937 42.6982 43.3429 38.2524 36.6132 38.2524C29.8834 38.2524 24.4326 42.6982 24.4326 48.1794" stroke="white" stroke-width="4" stroke-linecap="round" stroke-linejoin="round" />
</svg>