<svg width="74" height="74" viewBox="0 0 74 74" fill="none" xmlns="http://www.w3.org/2000/svg">
  <path d="M65.037 26.62V47.4486C65.037 50.8592 63.21 54.0262 60.2563 55.762L42.1682 66.2068C39.2144 67.912 35.5602 67.912 32.576 66.2068L14.4879 55.762C11.5341 54.0567 9.70703 50.8896 9.70703 47.4486V26.62C9.70703 23.2095 11.5341 20.0424 14.4879 18.3067L32.576 7.8619C35.5298 6.15663 39.1839 6.15663 42.1682 7.8619L60.2563 18.3067C63.21 20.0424 65.037 23.179 65.037 26.62Z" stroke="white" stroke-width="4" stroke-linecap="round" stroke-linejoin="round" />
  <path d="M30.5352 37.0344V33.3802C30.5352 28.6907 33.8544 26.7723 37.9044 29.1171L41.0713 30.9441L44.2383 32.7711C48.2883 35.1158 48.2883 38.9529 44.2383 41.2976L41.0713 43.1246L37.9044 44.9516C33.8544 47.2964 30.5352 45.3781 30.5352 40.6886V37.0344Z" stroke="white" stroke-width="4" stroke-miterlimit="10" stroke-linecap="round" stroke-linejoin="round" />
</svg>