<svg width="44" height="40" viewBox="0 0 44 40" fill="none" xmlns="http://www.w3.org/2000/svg">
  <g clip-path="url(#clip0)">
    <path d="M4 27.3335H39.3333V36.0002H4V27.3335Z" fill="white" />
    <path d="M38.9413 0H4.39202C1.96706 0 0 1.94982 0 4.35352V24.7403H43.3333V4.35352C43.3333 1.94982 41.3663 0 38.9413 0ZM21.1797 17.836V20.9941H17.9937H14.8594H11.6734H8.59701H5.41747V17.836V6.64855C5.41747 5.94534 5.99792 5.36999 6.70735 5.36999H8.60346V17.836H11.6798V5.36999H14.8658V17.836H17.9937V5.36999H21.1797V17.836ZM37.9223 8.52805V11.635V14.793V17.836V20.9941H34.7363H23.6756V17.836H34.7363V14.7866H23.6756V11.6286H34.7363V8.52166H23.6756V5.36999H34.7363H36.6324C37.3419 5.36999 37.9223 5.94534 37.9223 6.64855V8.52805Z" fill="white" />
    <path d="M14.395 32.1111H15.9429L15.1689 30.2061L14.395 32.1111Z" fill="#726A67" />
    <path d="M0 35.6464C0 38.0501 1.96706 39.9999 4.39202 39.9999H38.9349C41.3598 39.9999 43.3269 38.0501 43.3269 35.6464V24.7402H0V35.6464ZM32.8209 30.3659C32.8209 29.2983 33.698 28.4353 35.4845 28.4353C36.2648 28.4353 37.0774 28.6143 37.6643 28.9531L37.1419 30.2061C36.5679 29.8993 36.0004 29.7458 35.4715 29.7458C34.7557 29.7458 34.4977 29.9824 34.4977 30.2828C34.4977 31.197 37.9094 30.513 37.9094 32.7121C37.9094 33.7541 37.0323 34.6363 35.2458 34.6363C34.2591 34.6363 33.2788 34.3742 32.7112 33.9779L33.2723 32.7313C33.8076 33.0829 34.5622 33.3194 35.2587 33.3194C35.9617 33.3194 36.239 33.1212 36.239 32.8336C36.2455 31.8938 32.8209 32.5842 32.8209 30.3659ZM27.3647 28.5504H32.0856V29.8545H29.0544V30.8582H31.7245V32.1176H29.0544V33.2107H32.2017V34.5149H27.3711V28.5504H27.3647ZM19.1675 28.5504H20.5671L22.6824 31.9897L24.7462 28.5504H26.1458L26.1651 34.5149H24.5979L24.5786 31.3568L23.0307 33.9267H22.2761L20.7347 31.4399V34.5149H19.1611V28.5504H19.1675ZM14.3434 28.5504H16.0202L18.6838 34.5149H16.9167L16.4459 33.3578H13.9048L13.434 34.5149H11.6992L14.3434 28.5504ZM8.83564 28.4353C9.96428 28.4353 10.8736 28.8189 11.467 29.5285L10.3835 30.4938C9.97073 30.0399 9.49993 29.8289 8.91948 29.8289C7.88758 29.8289 7.1975 30.5002 7.1975 31.5358C7.1975 32.5395 7.88758 33.2363 8.90014 33.2363C9.21615 33.2363 9.51927 33.1788 9.8224 33.0381V31.4016H11.3251V33.8692C10.6286 34.3615 9.67406 34.63 8.79694 34.63C6.88148 34.63 5.48197 33.345 5.48197 31.5294C5.48197 29.7139 6.88793 28.4353 8.83564 28.4353Z" fill="#726A67" />
  </g>
  <defs>
    <clipPath id="clip0">
      <rect width="43.3333" height="40" fill="white" />
    </clipPath>
  </defs>
</svg>